<svg width="26" height="26" viewBox="0 0 26 26" fill="none" xmlns="http://www.w3.org/2000/svg">
<path d="M2.71429 24.6429V6.58381C2.71429 4.72141 3.42855 2.92994 4.70993 1.57843V1.57843C4.75034 1.5358 4.81823 1.5358 4.85864 1.57843V1.57843C6.14003 2.92994 6.85429 4.72141 6.85429 6.58381V24.6429" stroke="#FFC534" stroke-width="1.5"/>
<path d="M10.4286 24.643V6.75921C10.4286 4.9656 11.151 3.24759 12.4329 1.99302V1.99302C12.4694 1.95728 12.5278 1.95728 12.5643 1.99302V1.99302C13.8461 3.24759 14.5686 4.9656 14.5686 6.75921V24.643" stroke="#FFC534" stroke-width="1.5"/>
<path d="M18.1429 24.6429V6.45569C18.1429 4.62813 18.8612 2.8738 20.1429 1.57107V1.57107C20.1814 1.53201 20.2443 1.53201 20.2828 1.57107V1.57107C21.5645 2.8738 22.2829 4.62813 22.2829 6.45568V24.6429" stroke="#FFC534" stroke-width="1.5"/>
<path d="M1 25.0713H25" stroke="#FFC534" stroke-width="1.5" stroke-linecap="round"/>
</svg>
