<svg width="32" height="33" viewBox="0 0 32 33" fill="none" xmlns="http://www.w3.org/2000/svg">
<path d="M21.6 4.5H10.4C8.15979 4.5 7.03969 4.5 6.18404 4.93597C5.43139 5.31947 4.81947 5.93139 4.43597 6.68404C4 7.53969 4 8.65979 4 10.9V22.1C4 24.3402 4 25.4603 4.43597 26.316C4.81947 27.0686 5.43139 27.6805 6.18404 28.064C7.03969 28.5 8.15979 28.5 10.4 28.5H21.6C23.8402 28.5 24.9603 28.5 25.816 28.064C26.5686 27.6805 27.1805 27.0686 27.564 26.316C28 25.4603 28 24.3402 28 22.1V10.9C28 8.65979 28 7.53969 27.564 6.68404C27.1805 5.93139 26.5686 5.31947 25.816 4.93597C24.9603 4.5 23.8402 4.5 21.6 4.5Z" stroke="#FFC534" stroke-width="1.5" stroke-linecap="round" stroke-linejoin="round"/>
<path d="M24 28.1596V19.1667C24 14.7485 20.4183 11.1667 16 11.1667C11.5817 11.1667 8 14.7485 8 19.1667V28.1596H24Z" stroke="#FFC534" stroke-width="1.5" stroke-linecap="round"/>
<path d="M17.0794 19.8555C17.0794 19.8555 17.4344 16.6997 15.5804 15.5952C14.9897 17.0846 14.164 18.4697 13.1347 19.6977C11.6752 21.4334 11.2018 24.4313 14.3181 26.167C14.7068 25.5967 15.0372 24.9888 15.3043 24.3524C15.5231 23.4986 15.6682 22.6276 15.7382 21.7489C15.7382 21.7489 17.8289 23.7607 17.4345 26.167C17.4345 26.167 22.1681 23.8791 18.7756 19.1454" stroke="#FFC534" stroke-width="1.5" stroke-linecap="round" stroke-linejoin="round"/>
</svg>
