<svg width="26" height="27" viewBox="0 0 26 27" fill="none" xmlns="http://www.w3.org/2000/svg">
<path d="M18.6 1.5H7.4C5.15979 1.5 4.03969 1.5 3.18404 1.93597C2.43139 2.31947 1.81947 2.93139 1.43597 3.68404C1 4.53969 1 5.65979 1 7.9V19.1C1 21.3402 1 22.4603 1.43597 23.316C1.81947 24.0686 2.43139 24.6805 3.18404 25.064C4.03969 25.5 5.15979 25.5 7.4 25.5H18.6C20.8402 25.5 21.9603 25.5 22.816 25.064C23.5686 24.6805 24.1805 24.0686 24.564 23.316C25 22.4603 25 21.3402 25 19.1V7.9C25 5.65979 25 4.53969 24.564 3.68404C24.1805 2.93139 23.5686 2.31947 22.816 1.93597C21.9603 1.5 20.8402 1.5 18.6 1.5Z" stroke="#FFC534" stroke-width="1.5" stroke-miterlimit="7.6613" stroke-linecap="round"/>
</svg>
