<svg width="32" height="33" viewBox="0 0 32 33" fill="none" xmlns="http://www.w3.org/2000/svg">
<path d="M12 28.5V18.6333C12 17.8866 12 17.5132 12.1453 17.228C12.2732 16.9771 12.4771 16.7731 12.728 16.6453C13.0132 16.5 13.3866 16.5 14.1333 16.5H17.8667C18.6134 16.5 18.9868 16.5 19.272 16.6453C19.5229 16.7731 19.7268 16.9771 19.8547 17.228C20 17.5132 20 17.8866 20 18.6333V28.5M14.6903 4.18533L5.64719 11.2188C5.04269 11.689 4.74045 11.9241 4.5227 12.2185C4.32982 12.4793 4.18614 12.773 4.0987 13.0854C4 13.438 4 13.8209 4 14.5867V24.2333C4 25.7268 4 26.4735 4.29065 27.044C4.54631 27.5457 4.95426 27.9537 5.45603 28.2093C6.02646 28.5 6.77319 28.5 8.26667 28.5H23.7333C25.2268 28.5 25.9735 28.5 26.544 28.2093C27.0457 27.9537 27.4537 27.5457 27.7094 27.044C28 26.4735 28 25.7268 28 24.2333V14.5867C28 13.8209 28 13.438 27.9013 13.0854C27.8139 12.773 27.6702 12.4793 27.4773 12.2185C27.2596 11.9241 26.9573 11.689 26.3528 11.2188L17.3097 4.18533C16.8413 3.82099 16.6071 3.63883 16.3485 3.5688C16.1203 3.50701 15.8797 3.50701 15.6515 3.5688C15.3929 3.63883 15.1587 3.82099 14.6903 4.18533Z" stroke="#FFC534" stroke-width="1.5" stroke-linecap="round" stroke-linejoin="round"/>
</svg>
