<svg width="184" height="50" viewBox="0 0 184 50" fill="none" xmlns="http://www.w3.org/2000/svg">
<path d="M0 0H14.0625V15H29.6875V10.625H17.8125V0H58.4375V10.625H44.0625V44.0625H29.6875V25.9375H14.0625V44.0625H0V0Z" fill="#C7951A"/>
<path d="M63.0456 44.375V35.25H64.7956V44.375H63.0456ZM57.5958 44.375V35.25H59.3458V44.375H57.5958ZM58.4708 40.4V38.8625H63.9206V40.4H58.4708ZM69.0394 44.375V36.7875H66.1144V35.25H73.7769V36.7875H70.8519V44.375H69.0394ZM78.7294 44.5C77.7294 44.5 76.8712 44.3167 76.1544 43.95C75.4381 43.575 74.8881 43.0375 74.5044 42.3375C74.1294 41.6375 73.9419 40.7958 73.9419 39.8125C73.9419 38.8292 74.1294 37.9875 74.5044 37.2875C74.8881 36.5875 75.4381 36.0542 76.1544 35.6875C76.8712 35.3125 77.7294 35.125 78.7294 35.125C79.8713 35.125 80.8837 35.3708 81.7669 35.8625L81.3669 37.3875C80.5087 36.9042 79.6544 36.6625 78.8044 36.6625C78.1712 36.6625 77.6256 36.7875 77.1669 37.0375C76.7088 37.2875 76.3588 37.65 76.1169 38.125C75.8756 38.5917 75.7544 39.1542 75.7544 39.8125C75.7544 40.4625 75.8756 41.025 76.1169 41.5C76.3588 41.975 76.7088 42.3375 77.1669 42.5875C77.6256 42.8375 78.1712 42.9625 78.8044 42.9625C79.6381 42.9625 80.4919 42.7208 81.3669 42.2375L81.7669 43.7625C80.8837 44.2542 79.8713 44.5 78.7294 44.5ZM85.7869 44.5C84.72 44.5 83.895 44.2083 83.3119 43.625C82.7369 43.0417 82.4494 42.2083 82.4494 41.125C82.4494 40.0417 82.7369 39.2083 83.3119 38.625C83.895 38.0417 84.72 37.75 85.7869 37.75C86.8531 37.75 87.6744 38.0417 88.2494 38.625C88.8244 39.2083 89.1119 40.0417 89.1119 41.125C89.1119 42.2083 88.8244 43.0417 88.2494 43.625C87.6744 44.2083 86.8531 44.5 85.7869 44.5ZM85.7869 43.1625C86.32 43.1625 86.72 42.9917 86.9869 42.65C87.2619 42.3083 87.3994 41.8 87.3994 41.125C87.3994 40.45 87.2619 39.9417 86.9869 39.6C86.72 39.2583 86.32 39.0875 85.7869 39.0875C85.2619 39.0875 84.8575 39.2583 84.5744 39.6C84.2994 39.9417 84.1619 40.45 84.1619 41.125C84.1619 41.8 84.2994 42.3083 84.5744 42.65C84.8575 42.9917 85.2619 43.1625 85.7869 43.1625ZM90.4062 44.375V37.875H92.0438L92.0562 38.6375H92.0812C92.3475 38.3375 92.6562 38.1167 93.0062 37.975C93.3644 37.825 93.7769 37.75 94.2437 37.75C95.0269 37.75 95.6019 37.9625 95.9688 38.3875C96.3438 38.8042 96.5312 39.4667 96.5312 40.375V44.375H94.8188V40.7125C94.8188 40.1708 94.7269 39.7792 94.5438 39.5375C94.36 39.2875 94.0687 39.1625 93.6687 39.1625C93.3687 39.1625 93.1019 39.225 92.8687 39.35C92.635 39.4667 92.4519 39.6292 92.3188 39.8375C92.1938 40.0375 92.1313 40.275 92.1313 40.55V44.375H90.4062ZM100.371 44.5C100.08 44.5 99.7675 44.4792 99.4337 44.4375C99.1087 44.4042 98.7962 44.3542 98.4962 44.2875C98.1962 44.2125 97.9338 44.1292 97.7087 44.0375L97.9212 42.725C98.3212 42.8667 98.705 42.975 99.0713 43.05C99.4463 43.125 99.8175 43.1625 100.184 43.1625C100.601 43.1625 100.905 43.1083 101.096 43C101.288 42.8917 101.384 42.725 101.384 42.5C101.384 42.3667 101.351 42.2583 101.284 42.175C101.217 42.0917 101.096 42.0167 100.921 41.95C100.755 41.875 100.517 41.8042 100.209 41.7375C99.6756 41.6042 99.2175 41.45 98.8338 41.275C98.4588 41.0917 98.1712 40.8667 97.9712 40.6C97.7712 40.3333 97.6712 40.0083 97.6712 39.625C97.6712 39.0083 97.905 38.5417 98.3712 38.225C98.8381 37.9083 99.5175 37.75 100.409 37.75C100.818 37.75 101.238 37.7833 101.671 37.85C102.113 37.9167 102.526 38.0125 102.909 38.1375L102.696 39.45C102.33 39.325 101.976 39.2333 101.634 39.175C101.292 39.1167 100.959 39.0875 100.634 39.0875C100.218 39.0875 99.9087 39.1375 99.7087 39.2375C99.5087 39.3292 99.4087 39.475 99.4087 39.675C99.4087 39.7917 99.4425 39.8917 99.5088 39.975C99.5756 40.0583 99.6925 40.1333 99.8587 40.2C100.026 40.2667 100.259 40.3333 100.559 40.4C100.951 40.4917 101.305 40.6 101.621 40.725C101.938 40.85 102.209 41 102.434 41.175C102.659 41.3417 102.83 41.5375 102.946 41.7625C103.071 41.9875 103.134 42.2458 103.134 42.5375C103.134 42.9375 103.021 43.2875 102.796 43.5875C102.571 43.8792 102.251 44.1042 101.834 44.2625C101.426 44.4208 100.938 44.5 100.371 44.5ZM107.358 44.5C106.574 44.5 106.007 44.3417 105.658 44.025C105.316 43.7083 105.145 43.1875 105.145 42.4625V39.2125H103.732V37.875H105.145V35.75H106.87V37.875H108.982V39.2125H106.87V42.0375C106.87 42.4292 106.933 42.7042 107.058 42.8625C107.183 43.0125 107.407 43.0875 107.732 43.0875C107.907 43.0875 108.091 43.0708 108.282 43.0375C108.482 43.0042 108.666 42.9583 108.833 42.9L108.97 44.2625C108.687 44.3458 108.416 44.4042 108.158 44.4375C107.899 44.4792 107.632 44.5 107.358 44.5ZM110.45 44.375V37.875H112.1L112.113 39.0875H112.15C112.367 38.7958 112.621 38.5542 112.913 38.3625C113.213 38.1625 113.537 38.0125 113.888 37.9125C114.246 37.8042 114.612 37.75 114.987 37.75V39.2125C114.471 39.2125 114 39.3083 113.575 39.5C113.15 39.6917 112.813 39.9542 112.563 40.2875C112.313 40.6125 112.188 40.975 112.188 41.375V44.375H110.45ZM118.152 44.5C117.386 44.5 116.823 44.2875 116.464 43.8625C116.106 43.4375 115.927 42.775 115.927 41.875V37.875H117.639V41.5375C117.639 42.0792 117.723 42.475 117.889 42.725C118.064 42.9667 118.344 43.0875 118.727 43.0875C119.019 43.0875 119.273 43.0292 119.489 42.9125C119.714 42.7875 119.889 42.6208 120.014 42.4125C120.139 42.2042 120.202 41.9667 120.202 41.7V37.875H121.927V44.375H120.289L120.264 43.6125H120.239C119.981 43.9125 119.681 44.1375 119.339 44.2875C118.998 44.4292 118.602 44.5 118.152 44.5ZM126.846 44.5C126.087 44.5 125.437 44.3667 124.896 44.1C124.354 43.8333 123.941 43.45 123.658 42.95C123.374 42.4417 123.233 41.8333 123.233 41.125C123.233 40.4083 123.374 39.8 123.658 39.3C123.941 38.8 124.354 38.4167 124.896 38.15C125.437 37.8833 126.087 37.75 126.846 37.75C127.229 37.75 127.587 37.7875 127.921 37.8625C128.254 37.9375 128.579 38.0583 128.896 38.225L128.621 39.5375C128.329 39.3792 128.046 39.2667 127.771 39.2C127.504 39.125 127.237 39.0875 126.971 39.0875C126.337 39.0875 125.846 39.2625 125.496 39.6125C125.154 39.9625 124.983 40.4667 124.983 41.125C124.983 41.775 125.154 42.2792 125.496 42.6375C125.846 42.9875 126.337 43.1625 126.971 43.1625C127.237 43.1625 127.504 43.1292 127.771 43.0625C128.046 42.9875 128.329 42.8708 128.621 42.7125L128.896 44.025C128.579 44.1917 128.254 44.3125 127.921 44.3875C127.587 44.4625 127.229 44.5 126.846 44.5ZM133.346 44.5C132.563 44.5 131.996 44.3417 131.646 44.025C131.305 43.7083 131.134 43.1875 131.134 42.4625V39.2125H129.721V37.875H131.134V35.75H132.859V37.875H134.971V39.2125H132.859V42.0375C132.859 42.4292 132.921 42.7042 133.046 42.8625C133.171 43.0125 133.396 43.0875 133.721 43.0875C133.896 43.0875 134.08 43.0708 134.271 43.0375C134.471 43.0042 134.655 42.9583 134.821 42.9L134.959 44.2625C134.676 44.3458 134.405 44.4042 134.146 44.4375C133.888 44.4792 133.621 44.5 133.346 44.5ZM136.526 36.8375V35.25H138.276V36.8375H136.526ZM136.526 44.375V37.9625H138.276V44.375H136.526ZM143.013 44.5C141.947 44.5 141.122 44.2083 140.538 43.625C139.963 43.0417 139.676 42.2083 139.676 41.125C139.676 40.0417 139.963 39.2083 140.538 38.625C141.122 38.0417 141.947 37.75 143.013 37.75C144.08 37.75 144.901 38.0417 145.476 38.625C146.051 39.2083 146.338 40.0417 146.338 41.125C146.338 42.2083 146.051 43.0417 145.476 43.625C144.901 44.2083 144.08 44.5 143.013 44.5ZM143.013 43.1625C143.547 43.1625 143.947 42.9917 144.213 42.65C144.488 42.3083 144.626 41.8 144.626 41.125C144.626 40.45 144.488 39.9417 144.213 39.6C143.947 39.2583 143.547 39.0875 143.013 39.0875C142.488 39.0875 142.084 39.2583 141.801 39.6C141.526 39.9417 141.388 40.45 141.388 41.125C141.388 41.8 141.526 42.3083 141.801 42.65C142.084 42.9917 142.488 43.1625 143.013 43.1625ZM147.633 44.375V37.875H149.27L149.283 38.6375H149.308C149.574 38.3375 149.882 38.1167 150.232 37.975C150.591 37.825 151.003 37.75 151.47 37.75C152.253 37.75 152.828 37.9625 153.195 38.3875C153.57 38.8042 153.757 39.4667 153.757 40.375V44.375H152.045V40.7125C152.045 40.1708 151.953 39.7792 151.77 39.5375C151.587 39.2875 151.295 39.1625 150.895 39.1625C150.595 39.1625 150.328 39.225 150.095 39.35C149.862 39.4667 149.678 39.6292 149.545 39.8375C149.42 40.0375 149.357 40.275 149.357 40.55V44.375H147.633ZM162.246 36.8375V35.25H163.996V36.8375H162.246ZM162.246 44.375V37.9625H163.996V44.375H162.246ZM165.821 44.375V37.875H167.459L167.471 38.6375H167.496C167.762 38.3375 168.071 38.1167 168.421 37.975C168.779 37.825 169.192 37.75 169.659 37.75C170.442 37.75 171.017 37.9625 171.384 38.3875C171.759 38.8042 171.946 39.4667 171.946 40.375V44.375H170.234V40.7125C170.234 40.1708 170.142 39.7792 169.959 39.5375C169.775 39.2875 169.484 39.1625 169.084 39.1625C168.784 39.1625 168.517 39.225 168.284 39.35C168.05 39.4667 167.867 39.6292 167.734 39.8375C167.609 40.0375 167.546 40.275 167.546 40.55V44.375H165.821ZM176.699 44.5C175.941 44.5 175.291 44.3667 174.749 44.1C174.207 43.8333 173.795 43.45 173.511 42.95C173.228 42.4417 173.086 41.8333 173.086 41.125C173.086 40.4083 173.228 39.8 173.511 39.3C173.795 38.8 174.207 38.4167 174.749 38.15C175.291 37.8833 175.941 37.75 176.699 37.75C177.082 37.75 177.441 37.7875 177.774 37.8625C178.107 37.9375 178.432 38.0583 178.749 38.225L178.474 39.5375C178.183 39.3792 177.899 39.2667 177.624 39.2C177.358 39.125 177.091 39.0875 176.824 39.0875C176.191 39.0875 175.699 39.2625 175.349 39.6125C175.008 39.9625 174.836 40.4667 174.836 41.125C174.836 41.775 175.008 42.2792 175.349 42.6375C175.699 42.9875 176.191 43.1625 176.824 43.1625C177.091 43.1625 177.358 43.1292 177.624 43.0625C177.899 42.9875 178.183 42.8708 178.474 42.7125L178.749 44.025C178.432 44.1917 178.107 44.3125 177.774 44.3875C177.441 44.4625 177.082 44.5 176.699 44.5ZM180.389 44.375V42.4625H182.301V44.375H180.389Z" fill="#C7951A"/>
</svg>
