<svg width="26" height="27" viewBox="0 0 26 27" fill="none" xmlns="http://www.w3.org/2000/svg">
<path d="M17.1983 17.1001L19.6256 23.8965C19.9047 24.678 19.3253 25.5001 18.4955 25.5001H7.5011C6.67126 25.5001 6.0919 24.678 6.37101 23.8965L8.79829 17.1001" stroke="#FFC534" stroke-width="1.5"/>
<path d="M21.0064 17.1002H5.2C2.8804 17.1002 1 15.2198 1 12.9002V9.9002C1 9.23745 1.53726 8.7002 2.2 8.7002H23.8C24.4627 8.7002 25 9.23745 25 9.90019V13.1066C25 15.3122 23.212 17.1002 21.0064 17.1002Z" stroke="#FFC534" stroke-width="1.5"/>
<path d="M18.25 4.38C18.25 4.79421 18.5858 5.13 19 5.13C19.4142 5.13 19.75 4.79421 19.75 4.38H18.25ZM13.75 8.7V3.89746H12.25V8.7H13.75ZM15.3975 2.25H16.12V0.75H15.3975V2.25ZM16.12 2.25C17.2964 2.25 18.25 3.20363 18.25 4.38H19.75C19.75 2.37521 18.1248 0.75 16.12 0.75V2.25ZM13.75 3.89746C13.75 2.98759 14.4876 2.25 15.3975 2.25V0.75C13.6592 0.75 12.25 2.15917 12.25 3.89746H13.75Z" fill="#FFC534"/>
</svg>
